<svg width="1662" height="532" viewBox="0 0 1662 532" fill="none" xmlns="http://www.w3.org/2000/svg">
<g clip-path="url(#clip0_1_385)">
<g clip-path="url(#clip1_1_385)">
<path opacity="0.15" d="M3.54669 -1.18213C110.834 191.384 298.898 475.692 511.598 154.481C789.725 -265.531 1037.46 537.972 1244.44 304.525C1439.36 84.6889 1705.95 167.406 1705.95 167.406" stroke="#1F4AB7" stroke-width="0.945778"/>
<path opacity="0.15" d="M3.54669 51.5752C110.834 244.141 256.879 499.59 511.598 207.239C802.729 -126.902 1072.88 615.322 1244.44 357.283C1389.11 139.691 1705.95 220.164 1705.95 220.164" stroke="#1F4AB7" stroke-width="0.945778"/>
<path opacity="0.15" d="M0 144.743C107.287 337.308 165.594 495.942 508.052 300.406C876.027 90.3016 1195.69 752.569 1240.9 450.45C1279.76 190.765 1702.4 313.332 1702.4 313.332" stroke="#1F4AB7" stroke-width="0.945778"/>
</g>
</g>
<defs>
<clipPath id="clip0_1_385">
<rect width="1662" height="532" fill="white"/>
</clipPath>
<clipPath id="clip1_1_385">
<rect width="1702.4" height="532" fill="white"/>
</clipPath>
</defs>
</svg>
