<svg width="80" height="80" viewBox="0 0 80 80" fill="none" xmlns="http://www.w3.org/2000/svg">
<path fill-rule="evenodd" clip-rule="evenodd" d="M26.9594 9.86963C23.9003 9.86963 21.2337 11.9516 20.4918 14.9194L18.6373 22.3372H54.8052C57.8176 22.3372 60.2597 24.7792 60.2597 27.7917C60.2597 30.8042 57.8176 33.2463 54.8052 33.2463H35.3666L37.1848 25.7138H29.8468C26.7675 25.7138 24.0888 27.8228 23.3663 30.8162L17.7014 54.2852H25.0393C28.1186 54.2852 30.7973 52.1762 31.5199 49.1828L32.3572 45.7138H54.8052C64.7033 45.7138 72.7273 37.6898 72.7273 27.7917C72.7273 17.8936 64.7033 9.86963 54.8052 9.86963H26.9594Z" fill="url(#paint0_linear_39_1450)"/>
<path fill-rule="evenodd" clip-rule="evenodd" d="M56.3638 49.2775H53.6418L53.2545 50.8621C52.3107 54.7237 48.825 57.5875 44.6755 57.5875H15.237C12.0289 57.5875 9.27578 59.8724 8.68456 63.0256L7.36654 70.055H44.6755C56.1776 70.055 65.5494 60.9383 65.9602 49.5355L66.0909 45.9066L62.896 47.6325C60.9545 48.6813 58.7319 49.2775 56.3638 49.2775ZM63.8834 49.4608C63.6932 54.7399 61.374 59.4763 57.7586 62.8371C60.8089 60.0017 62.9366 56.1871 63.6415 51.8935C63.7721 51.0979 63.8537 50.2861 63.8834 49.4608Z" fill="url(#paint1_linear_39_1450)"/>
<defs>
<linearGradient id="paint0_linear_39_1450" x1="68.3333" y1="44.9998" x2="15" y2="29.9998" gradientUnits="userSpaceOnUse">
<stop stop-color="#8000FF"/>
<stop offset="1" stop-color="#007BFF"/>
</linearGradient>
<linearGradient id="paint1_linear_39_1450" x1="68.3333" y1="44.9998" x2="15" y2="29.9998" gradientUnits="userSpaceOnUse">
<stop stop-color="#8000FF"/>
<stop offset="1" stop-color="#007BFF"/>
</linearGradient>
</defs>
</svg>
